<svg xmlns="http://www.w3.org/2000/svg" viewBox="0 0 304 80" fill="none" role="img" aria-label="Sbobinator">
  <title>Sbobinator</title>
  <desc>Logo Sbobinator per sfondi scuri: bobina che si srotola in righe di testo, wordmark in tracciati vettoriali</desc>
  <g transform="translate(8,8)">
    <circle cx="22" cy="25" r="13" stroke="#38bdf8" stroke-width="5"/>
    <circle cx="22" cy="25" r="3" fill="#38bdf8"/>
    <path d="M22 38H57" stroke="#38bdf8" stroke-width="5" stroke-linecap="round"/>
    <path d="M22 48H57" stroke="#f0f4ff" stroke-width="5" stroke-linecap="round"/>
    <path d="M22 58H44" stroke="#f0f4ff" stroke-width="5" stroke-linecap="round"/>
  </g>
  <path fill="#f0f4ff" fill-rule="nonzero" d="M99.17 54.43Q96.54 54.43 94.5 53.67Q92.47 52.92 91.18 51.49Q89.9 50.05 89.52 48.03L94.98 47.09Q95.41 48.62 96.48 49.38Q97.55 50.14 99.34 50.14Q101.02 50.14 101.99 49.5Q102.96 48.86 102.96 47.88Q102.96 47.02 102.27 46.48Q101.58 45.93 100.14 45.63L96.38 44.86Q93.22 44.21 91.66 42.66Q90.1 41.11 90.1 38.66Q90.1 36.56 91.24 35.05Q92.39 33.53 94.45 32.71Q96.5 31.89 99.26 31.89Q101.85 31.89 103.75 32.61Q105.64 33.32 106.81 34.63Q107.97 35.93 108.38 37.71L103.18 38.63Q102.84 37.51 101.89 36.8Q100.95 36.09 99.35 36.09Q97.91 36.09 96.93 36.7Q95.95 37.31 95.95 38.31Q95.95 39.13 96.58 39.7Q97.21 40.27 98.76 40.59L102.68 41.37Q105.85 42.01 107.4 43.47Q108.95 44.93 108.95 47.27Q108.95 49.41 107.69 51.02Q106.44 52.63 104.24 53.53Q102.04 54.43 99.17 54.43Z M124.13 54.36Q122.36 54.36 121.13 53.76Q119.89 53.16 119.12 52.27Q118.36 51.38 117.94 50.51H117.66V54H111.9V24.9H117.75V35.84H117.94Q118.35 34.97 119.09 34.05Q119.84 33.14 121.08 32.51Q122.31 31.89 124.17 31.89Q126.59 31.89 128.6 33.14Q130.61 34.39 131.82 36.89Q133.02 39.39 133.02 43.12Q133.02 46.75 131.85 49.26Q130.68 51.77 128.67 53.07Q126.66 54.36 124.13 54.36ZM122.33 49.67Q123.86 49.67 124.9 48.83Q125.94 47.99 126.48 46.5Q127.01 45.02 127.01 43.1Q127.01 41.18 126.48 39.72Q125.95 38.25 124.91 37.42Q123.87 36.59 122.33 36.59Q120.82 36.59 119.77 37.39Q118.72 38.19 118.18 39.65Q117.63 41.11 117.63 43.1Q117.63 45.07 118.18 46.55Q118.73 48.02 119.79 48.84Q120.84 49.67 122.33 49.67Z M145.89 54.43Q142.6 54.43 140.2 53.02Q137.8 51.6 136.5 49.07Q135.21 46.54 135.21 43.18Q135.21 39.79 136.5 37.25Q137.8 34.71 140.2 33.3Q142.6 31.89 145.89 31.89Q149.18 31.89 151.57 33.3Q153.97 34.71 155.26 37.25Q156.56 39.79 156.56 43.18Q156.56 46.54 155.26 49.07Q153.97 51.6 151.57 53.02Q149.18 54.43 145.89 54.43ZM145.89 49.82Q147.45 49.82 148.5 48.95Q149.55 48.08 150.08 46.57Q150.6 45.06 150.6 43.16Q150.6 41.23 150.08 39.73Q149.55 38.23 148.5 37.36Q147.45 36.5 145.89 36.5Q144.32 36.5 143.27 37.36Q142.22 38.23 141.7 39.72Q141.17 41.22 141.17 43.16Q141.17 45.06 141.7 46.57Q142.22 48.08 143.27 48.95Q144.32 49.82 145.89 49.82Z M171.88 54.36Q170.1 54.36 168.87 53.76Q167.64 53.16 166.87 52.27Q166.1 51.38 165.69 50.51H165.4V54H159.64V24.9H165.5V35.84H165.69Q166.09 34.97 166.84 34.05Q167.59 33.14 168.82 32.51Q170.06 31.89 171.91 31.89Q174.34 31.89 176.35 33.14Q178.35 34.39 179.56 36.89Q180.77 39.39 180.77 43.12Q180.77 46.75 179.6 49.26Q178.43 51.77 176.41 53.07Q174.4 54.36 171.88 54.36ZM170.08 49.67Q171.61 49.67 172.65 48.83Q173.69 47.99 174.22 46.5Q174.76 45.02 174.76 43.1Q174.76 41.18 174.23 39.72Q173.7 38.25 172.66 37.42Q171.62 36.59 170.08 36.59Q168.57 36.59 167.52 37.39Q166.47 38.19 165.92 39.65Q165.38 41.11 165.38 43.1Q165.38 45.07 165.93 46.55Q166.48 48.02 167.53 48.84Q168.59 49.67 170.08 49.67Z M183.86 54V32.16H189.72V54ZM186.79 29.32Q185.46 29.32 184.52 28.43Q183.57 27.55 183.57 26.31Q183.57 25.05 184.52 24.17Q185.46 23.3 186.79 23.3Q188.11 23.3 189.06 24.17Q190.01 25.04 190.01 26.31Q190.01 27.55 189.06 28.43Q188.11 29.32 186.79 29.32Z M199.56 41.36V54H193.7V32.16H199.23L199.32 37.62H198.97Q199.83 34.88 201.58 33.39Q203.33 31.89 206.1 31.89Q208.37 31.89 210.05 32.88Q211.74 33.87 212.67 35.71Q213.61 37.55 213.61 40.11V54H207.75V41.13Q207.75 39.1 206.7 37.94Q205.65 36.78 203.8 36.78Q202.56 36.78 201.6 37.33Q200.64 37.87 200.1 38.89Q199.56 39.9 199.56 41.36Z M223.7 54.42Q221.62 54.42 219.98 53.69Q218.33 52.96 217.38 51.5Q216.44 50.05 216.44 47.89Q216.44 46.06 217.11 44.84Q217.78 43.61 218.94 42.86Q220.1 42.12 221.58 41.73Q223.06 41.34 224.67 41.18Q226.56 40.99 227.73 40.83Q228.89 40.66 229.43 40.3Q229.97 39.94 229.97 39.23V39.14Q229.97 38.2 229.58 37.56Q229.18 36.91 228.42 36.57Q227.65 36.22 226.54 36.22Q225.42 36.22 224.58 36.56Q223.74 36.9 223.21 37.47Q222.67 38.04 222.44 38.75L217.07 37.86Q217.62 35.95 218.93 34.62Q220.24 33.29 222.19 32.59Q224.13 31.89 226.56 31.89Q228.32 31.89 229.98 32.31Q231.64 32.72 232.96 33.61Q234.28 34.5 235.05 35.9Q235.83 37.31 235.83 39.3V54H230.27V50.97H230.08Q229.55 51.98 228.67 52.76Q227.8 53.54 226.56 53.98Q225.33 54.42 223.7 54.42ZM225.35 50.32Q226.74 50.32 227.78 49.77Q228.83 49.21 229.42 48.28Q230.02 47.34 230.02 46.19V43.83Q229.75 44.01 229.23 44.17Q228.7 44.33 228.06 44.45Q227.42 44.58 226.79 44.67Q226.16 44.76 225.68 44.83Q224.6 44.97 223.78 45.32Q222.96 45.67 222.51 46.26Q222.05 46.84 222.05 47.72Q222.05 48.57 222.48 49.15Q222.91 49.72 223.65 50.02Q224.39 50.32 225.35 50.32Z M250.67 32.16V36.63H237.72V32.16ZM240.73 26.97H246.58V47.61Q246.58 48.65 247.05 49.15Q247.51 49.64 248.57 49.64Q248.91 49.64 249.51 49.56Q250.12 49.47 250.43 49.4L251.27 53.79Q250.29 54.08 249.33 54.19Q248.37 54.31 247.48 54.31Q244.2 54.31 242.46 52.71Q240.73 51.12 240.73 48.12Z M262.85 54.43Q259.57 54.43 257.17 53.02Q254.77 51.6 253.47 49.07Q252.17 46.54 252.17 43.18Q252.17 39.79 253.47 37.25Q254.77 34.71 257.17 33.3Q259.57 31.89 262.85 31.89Q266.15 31.89 268.54 33.3Q270.94 34.71 272.23 37.25Q273.53 39.79 273.53 43.18Q273.53 46.54 272.23 49.07Q270.94 51.6 268.54 53.02Q266.15 54.43 262.85 54.43ZM262.85 49.82Q264.42 49.82 265.47 48.95Q266.52 48.08 267.05 46.57Q267.57 45.06 267.57 43.16Q267.57 41.23 267.05 39.73Q266.52 38.23 265.47 37.36Q264.42 36.5 262.85 36.5Q261.29 36.5 260.24 37.36Q259.19 38.23 258.67 39.72Q258.14 41.22 258.14 43.16Q258.14 45.06 258.67 46.57Q259.19 48.08 260.24 48.95Q261.29 49.82 262.85 49.82Z M276.61 54V32.16H282.29V35.97H282.52Q283.12 33.95 284.53 32.91Q285.95 31.87 287.79 31.87Q288.24 31.87 288.76 31.92Q289.28 31.97 289.68 32.07V37.3Q289.29 37.17 288.55 37.08Q287.8 37 287.15 37Q285.81 37 284.74 37.58Q283.68 38.16 283.07 39.19Q282.47 40.21 282.47 41.57V54Z"/>
</svg>
